<svg width="16" height="24" viewBox="0 0 16 24" fill="none" xmlns="http://www.w3.org/2000/svg">
<path d="M4.71875 6C3.69062 6 2.76094 6.40714 2.09375 7.07143C1.41563 7.725 1 8.63571 1 9.64286C1 10.65 1.41563 11.5607 2.09375 12.2143L8 18L13.9062 12.2143C14.5844 11.55 15 10.6393 15 9.64286C15 8.63571 14.5844 7.725 13.9062 7.07143C13.2281 6.40714 12.2984 6 11.2812 6C10.2531 6 9.32344 6.40714 8.65625 7.07143C8.39375 7.32857 8.175 7.61786 8 7.92857C7.825 7.60714 7.60625 7.31786 7.34375 7.07143C6.67656 6.40714 5.74687 6 4.71875 6Z" fill="#EB4C68"/>
</svg>
