<svg width="214" height="17" viewBox="0 0 214 17" fill="none" xmlns="http://www.w3.org/2000/svg">
<circle r="3" transform="matrix(-1 0 0 1 3 9)" fill="black"/>
<path d="M27.1445 3.17383V16H29.873V3.17383H35.5986V0.595703H21.4189V3.17383H27.1445ZM44.7282 16L46.2321 12.2617H53.4616L54.9655 16H57.9196L51.5817 0.595703H48.1012L41.7741 16H44.7282ZM49.8415 3.24902L52.4411 9.68359H47.2526L49.8415 3.24902ZM80.724 5.15039C80.0795 2.0459 77.4369 0.241211 73.7953 0.241211C68.9828 0.241211 65.932 3.4209 65.932 8.41602C65.932 13.3682 68.9183 16.3545 73.6664 16.3545C77.555 16.3545 80.1976 14.335 80.8099 11.1123L78.1244 10.5215C77.7269 12.6162 76.1586 13.8086 73.7416 13.8086C70.6371 13.8086 68.7035 11.7998 68.7035 8.33008C68.7035 4.93555 70.5619 2.78711 73.8168 2.78711C76.0511 2.78711 77.6625 3.78613 78.0599 5.71973L80.724 5.15039ZM97.7276 0.241211C93.001 0.241211 89.961 3.30273 89.961 8.29785C89.961 13.293 93.001 16.3545 97.7276 16.3545C102.443 16.3545 105.494 13.293 105.494 8.29785C105.494 3.30273 102.443 0.241211 97.7276 0.241211ZM97.7276 2.78711C100.735 2.78711 102.723 4.75293 102.723 8.29785C102.723 11.8428 100.735 13.8086 97.7276 13.8086C94.709 13.8086 92.7325 11.8428 92.7325 8.29785C92.7325 4.75293 94.709 2.78711 97.7276 2.78711ZM119.071 3.17383V16H121.8V3.17383H127.525V0.595703H113.345V3.17383H119.071ZM139.566 9.54395H147.59V16H150.308V0.595703H147.59V6.96582H139.566V0.595703H136.837V16H139.566V9.54395ZM161.296 16H164.024V0.595703H161.296V16ZM185.658 11.875L178.085 0.595703H174.991V16H177.719V4.7959L185.293 16H188.376V0.595703H185.658V11.875ZM205.626 10.0596H210.707C210.664 11.8965 209.193 13.873 206.174 13.873C203.263 13.873 201.276 12.0469 201.276 8.41602C201.276 4.9248 203.123 2.78711 206.378 2.78711C208.559 2.78711 210.127 3.73242 210.579 5.54785L213.264 4.97852C212.544 1.9707 209.945 0.241211 206.378 0.241211C201.555 0.241211 198.504 3.39941 198.504 8.46973C198.504 13.3896 201.372 16.3545 205.659 16.3545C208.237 16.3545 209.913 15.2803 210.772 13.7119V16H213.382V7.64258H205.626V10.0596Z" fill="black"/>
</svg>
